Coordinates
version=1
nRows=17
nColumns=38
inDegrees=yes

Units are S.I. units (second, meters, Newtons, ...)
Angles are in degrees.

endheader
time	pelvis_tilt	pelvis_list	pelvis_rotation	pelvis_tx	pelvis_ty	pelvis_tz	hip_flexion_r	hip_adduction_r	hip_rotation_r	knee_angle_r	ankle_angle_r	subtalar_angle_r	mtp_angle_r	hip_flexion_l	hip_adduction_l	hip_rotation_l	knee_angle_l	ankle_angle_l	subtalar_angle_l	mtp_angle_l	lumbar_extension	lumbar_bending	lumbar_rotation	arm_flex_r	arm_add_r	arm_rot_r	elbow_flex_r	pro_sup_r	wrist_flex_r	wrist_dev_r	arm_flex_l	arm_add_l	arm_rot_l	elbow_flex_l	pro_sup_l	wrist_flex_l	wrist_dev_l
      1.16000000	     19.32043722	     -7.79468922	      2.08433304	     -0.90147308	      0.94171982	     -0.25852903	    -34.74067204	     12.61475020	    -10.01244647	     -4.56133721	      5.40094160	     22.82963389	      0.00000000	      6.96275613	     -8.22047797	   -359.85924033	    -16.76429648	     12.20415264	      9.77545551	      0.00000000	    -27.46748731	     10.93940115	      7.10482796	      8.23726781	    -24.75251571	      9.60726839	     35.46114217	     86.51662706	      0.00000000	      0.00000000	     -3.31252124	    -11.66601903	      8.81714862	      9.24604440	     85.94366927	      0.00000000	      0.00000000
      1.17000000	     19.07968812	     -7.83172669	      2.21945945	     -0.88936909	      0.93929298	     -0.25915417	    -35.17314510	     12.64825657	     -9.85504905	     -4.84420746	      5.72902577	     22.73611986	      0.00000000	      7.30704281	     -8.01701896	   -359.54961249	    -14.60193385	     12.23734848	     10.87613730	      0.00000000	    -27.29258423	     11.02928371	      6.96213604	      8.45055058	    -24.93969381	      9.58442626	     35.92095997	     86.51662706	      0.00000000	      0.00000000	     -3.54098272	    -11.57192687	      8.77846533	      8.97966886	     85.94366927	      0.00000000	      0.00000000
      1.18000000	     18.99358047	     -7.81513130	      2.43126094	     -0.87707379	      0.93698813	     -0.25990870	    -35.72349736	     12.66415660	     -9.85083545	     -5.23014594	      6.06352454	     22.62929549	      0.00000000	      7.49127979	     -7.75621705	   -359.41503650	    -12.87326789	     12.25032807	     12.39434374	      0.00000000	    -27.25349994	     11.07420939	      6.68146924	      8.62940708	    -25.10073568	      9.54290929	     36.41072131	     86.51662706	      0.00000000	      0.00000000	     -3.78315501	    -11.44823335	      8.92462481	      8.48095646	     85.94366927	      0.00000000	      0.00000000
      1.19000000	     19.18985632	     -7.75548720	      2.40453096	     -0.86395394	      0.93520333	     -0.26022715	    -36.61004829	     12.44894497	     -9.98490278	     -5.67893394	      6.20029142	     23.12319135	      0.00000000	      7.51740515	     -7.63388859	   -360.61831438	    -12.18626798	     12.51183897	     15.64350278	      0.00000000	    -27.44471042	     10.98036551	      6.71212634	      8.46346127	    -25.22276252	      9.06578016	     37.08319465	     86.51662706	      0.00000000	      0.00000000	     -3.70430996	    -11.31289511	      8.93576065	      7.55187986	     85.94366927	      0.00000000	      0.00000000
      1.20000000	     19.14386052	     -7.84547715	      2.40703072	     -0.85107404	      0.93334194	     -0.26093842	    -37.10443889	     12.36954456	     -9.80829719	     -6.32788957	      6.23881611	     23.17251082	      0.00000000	      7.70719785	     -7.49097189	   -360.36895841	    -11.76458135	     12.43750281	     16.37039873	      0.00000000	    -27.41841293	     11.06783378	      6.61538617	      8.52765240	    -25.34301307	      8.94826847	     37.39743087	     86.51662706	      0.00000000	      0.00000000	     -3.89666928	    -11.19055475	      8.85896686	      7.32947673	     85.94366927	      0.00000000	      0.00000000
      1.21000000	     19.38684641	     -7.86667328	      2.34141796	     -0.83770012	      0.93188475	     -0.26109254	    -37.89685495	     12.15915961	     -9.75035769	     -7.04304893	      6.18078490	     23.60846575	      0.00000000	      7.83773419	     -7.41479882	   -360.87875465	    -12.51288417	     12.67951345	     18.18328475	      0.00000000	    -27.67451607	     10.99222049	      6.78757753	      8.02873630	    -25.43709584	      8.16979585	     38.21553010	     86.51662706	      0.00000000	      0.00000000	     -3.83038196	    -11.03274119	      9.06692895	      6.52222124	     85.94366927	      0.00000000	      0.00000000
      1.22000000	     19.45163271	     -7.83958761	      2.20861582	     -0.82421802	      0.93050873	     -0.26137116	    -38.42075280	     11.86021624	     -9.40652614	     -7.86848055	      5.95759276	     23.64729824	      0.00000000	      7.97780451	     -7.18390860	   -360.59933179	    -13.46787817	     12.48871891	     18.17780474	      0.00000000	    -27.68766516	     10.86088300	      6.76194123	      7.96520033	    -25.44632805	      8.04979030	     38.25408633	     86.51662706	      0.00000000	      0.00000000	     -4.00509199	    -11.00509626	      9.03186623	      6.38156978	     85.94366927	      0.00000000	      0.00000000
      1.23000000	     19.57031884	     -7.79546341	      2.04757719	     -0.81024030	      0.92923321	     -0.26148808	    -38.95203911	     11.51849511	     -9.02581972	     -8.82517197	      5.61513194	     23.72197362	      0.00000000	      8.07266209	     -6.95509276	   -360.39406592	    -14.98737687	     12.34502013	     17.99248176	      0.00000000	    -27.72544531	     10.67753160	      6.69454831	      7.78593838	    -25.37470883	      7.85376361	     38.30731124	     86.51662706	      0.00000000	      0.00000000	     -4.25767125	    -10.96372610	      9.02092943	      6.16877225	     85.94366927	      0.00000000	      0.00000000
      1.24000000	     19.70381391	     -7.80292441	      1.84926567	     -0.79595245	      0.92784144	     -0.26131434	    -39.41685799	     11.18636905	     -8.67048563	     -9.96046937	      5.27003139	     23.78261917	      0.00000000	      8.16615696	     -6.79796939	   -360.28178039	    -16.95850134	     12.30077203	     17.43833013	      0.00000000	    -27.71680539	     10.46925255	      6.65296146	      7.48352487	    -25.24726176	      7.49441680	     38.39420397	     86.51662706	      0.00000000	      0.00000000	     -4.52956247	    -10.90889033	      9.12546985	      5.89368190	     85.94366927	      0.00000000	      0.00000000
      1.25000000	     19.44881048	     -8.01714407	      1.51915277	     -0.78112735	      0.92614693	     -0.26138002	    -39.31101592	     10.90927467	     -8.18150433	    -11.42920804	      4.89624807	     24.01324304	      0.00000000	      8.45212863	     -6.74064067	   -359.77178998	    -18.87497780	     12.13005871	     15.84697322	      0.00000000	    -27.27452863	     10.53133522	      7.12605329	      6.44055206	    -25.19544202	      6.07166363	     38.87631828	     86.51662706	      0.00000000	      0.00000000	     -4.56391680	    -10.76333182	      9.54380600	      5.45808781	     85.94366927	      0.00000000	      0.00000000
      1.26000000	     19.51082029	     -7.93768117	      1.35054779	     -0.76613309	      0.92508406	     -0.26142666	    -39.61019222	     10.50794649	     -7.72129947	    -12.65362365	      4.07075155	     23.99439847	      0.00000000	      8.13944980	     -6.42123085	   -359.22473327	    -20.30913761	     10.92458655	     15.72542002	      0.00000000	    -27.09154094	     10.27968688	      7.05627740	      5.90183926	    -25.06637867	      5.79067217	     38.77871614	     86.51662706	      0.00000000	      0.00000000	     -4.77032480	    -10.75968670	      9.62805270	      5.30751639	     85.94366927	      0.00000000	      0.00000000
      1.27000000	     19.94795585	     -7.17574107	      0.94911351	     -0.75149856	      0.92545687	     -0.26124955	    -40.01867416	      9.29540661	     -7.88389413	    -14.31598598	      3.20291311	     24.21536640	      0.00000000	      6.81294119	     -5.34393301	   -359.05449643	    -19.93693439	      6.59819855	     13.43958929	      0.00000000	    -27.44660636	      9.24045568	      7.53414729	      4.60233128	    -24.56634205	      3.39761713	     39.17438316	     86.51662706	      0.00000000	      0.00000000	     -4.24465052	    -10.84564193	     10.06861739	      4.77917637	     85.94366927	      0.00000000	      0.00000000
      1.28000000	     20.09939465	     -6.94366639	      0.91141541	     -0.73696465	      0.92521337	     -0.26128278	    -40.05131738	      8.86312231	     -7.43488796	    -15.98920415	      1.91022934	     23.86661300	      0.00000000	      6.62741283	     -5.02448947	   -359.03199986	    -21.05928350	      5.55580201	     13.30422111	      0.00000000	    -27.42644041	      8.88248415	      7.17903874	      4.25215926	    -24.19891135	      3.04105473	     38.72755435	     86.51662706	      0.00000000	      0.00000000	     -4.37913124	    -10.89249897	     10.12006157	      4.75815201	     85.94366927	      0.00000000	      0.00000000
      1.29000000	     20.02287737	     -6.47667085	      0.89446989	     -0.72273304	      0.92514708	     -0.26170022	    -39.52900046	      8.28249203	     -6.94428951	    -18.12914695	      0.73782121	     22.86282784	      0.00000000	      6.67676590	     -4.31204962	   -358.13395003	    -22.46279137	      3.85417744	     11.96937303	      0.00000000	    -27.13002843	      8.32534788	      6.80182072	      3.91696414	    -23.61797114	      1.99265667	     37.82472155	     86.51662706	      0.00000000	      0.00000000	     -4.47977549	    -10.97994782	     10.97640346	      4.82566510	     85.94366927	      0.00000000	      0.00000000
      1.30000000	     20.21210320	     -6.18641381	      0.99642266	     -0.70863160	      0.92565931	     -0.26225502	    -39.03507864	      7.84346421	     -6.80080844	    -20.57536033	     -1.20114431	     22.35755145	      0.00000000	      6.65246789	     -3.91024358	   -357.67938867	    -24.42099229	      3.08256033	     11.40994852	      0.00000000	    -27.18286011	      7.98443922	      6.34988055	      3.53824905	    -23.27414802	      1.57233707	     37.20521064	     86.51662706	      0.00000000	      0.00000000	     -4.42446247	    -11.02293241	     11.21309176	      4.88709366	     85.94366927	      0.00000000	      0.00000000
      1.31000000	     19.47492625	     -5.69242637	      1.65174868	     -0.69434539	      0.92498685	     -0.26401336	    -37.17795555	      7.50451100	     -7.56843739	    -23.60417375	     -3.04582921	     22.04614801	      0.00000000	      7.57222612	     -2.96705029	   -355.93388143	    -25.98645968	      2.25837979	      9.27913196	      0.00000000	    -26.07323546	      7.77329681	      5.32615550	      2.97291703	    -22.72754396	      0.60659064	     36.25230054	     86.51662706	      0.00000000	      0.00000000	     -4.39346136	    -11.14006115	     12.58803867	      4.95916034	     85.94366927	      0.00000000	      0.00000000
      1.32000000	     19.29990866	     -5.16242673	      1.76716318	     -0.68010815	      0.92561171	     -0.26482638	    -35.77279801	      6.82215964	     -7.78544658	    -26.74284353	     -6.06580701	     20.81702907	      0.00000000	      7.43567404	     -2.17780360	   -355.13564440	    -26.86089306	      1.29115465	      8.04406755	      0.00000000	    -25.66339123	      7.25682344	      4.77686321	      2.48541403	    -22.20535572	     -0.15986227	     35.32770586	     86.51662706	      0.00000000	      0.00000000	     -4.28569989	    -11.21362532	     12.94260094	      5.11604944	     85.94366927	      0.00000000	      0.00000000
